<?xml version="1.0" encoding="UTF-8"?>
<svg enable-background="new 0 0 482.4 126.1" version="1.1" viewBox="0 0 482.4 126.1" xml:space="preserve" xmlns="http://www.w3.org/2000/svg">
	<path d="m265.1 12.2h5.9v25.1h-5.9v-11.6h-10.6v11.6h-5.9v-25.1h5.9v10.8h10.6v-10.8zm59.3 18.3-11.6-18.3h-6.1v25.1h2.9v-19.8l12.5 19.8h5.2v-25.1h-2.9v18.3zm-22-5.7c0 7.6-5.6 13-13.7 13s-13.7-5.3-13.7-13c0-7.6 5.6-13 13.7-13s13.7 5.3 13.7 13zm-13.7-10.7c-4.7 0-7.5 4-7.5 10.7s2.8 10.7 7.5 10.7 7.5-4 7.5-10.7-2.8-10.7-7.5-10.7zm105.5-1.9h-3.6l-11.9 12.1v-12.1h-5.9v25.1h5.9v-10.9l9.5 10.9h7.5l-12.3-14 10.8-11.1zm77.1 13v8.3c-0.8 1.2-3.2 1.8-5.2 1.8-5.2 0-8.4-3.9-8.4-10.6 0-6.5 3.3-10.6 8.5-10.6 4.5 0 7.2 2.2 8.5 7l0.1 0.3h1.1v-7.4l-0.2-0.1c-2.5-1.4-5.8-2.1-9.4-2.1-4.7 0-8.6 1.4-11.2 4-2.3 2.3-3.5 5.5-3.5 9 0 6.3 3.8 13 14.5 13 4.3 0 8.5-1.3 10.7-3.4l0.1-0.1v-9h-5.6zm-26.9 5.3-11.6-18.3h-6.1v25.1h2.9v-19.8l12.5 19.8h5.2v-25.1h-2.9v18.3zm-21.9-5.7c0 7.6-5.6 13-13.7 13s-13.7-5.3-13.7-13c0-7.6 5.6-13 13.7-13 8 0 13.7 5.3 13.7 13zm-13.7-10.7c-4.7 0-7.5 4-7.5 10.7s2.8 10.7 7.5 10.7 7.5-4 7.5-10.7-2.8-10.7-7.5-10.7zm-58 19.5c-0.8 1.2-3.2 1.8-5.2 1.8-5.2 0-8.4-3.9-8.4-10.6 0-6.5 3.3-10.6 8.5-10.6 4.5 0 7.2 2.2 8.5 7l0.1 0.3h1.1v-7.5l-0.2-0.1c-2.5-1.4-5.8-2.1-9.4-2.1-4.7 0-8.6 1.4-11.2 4-2.3 2.3-3.5 5.5-3.5 9 0 6.3 3.8 13 14.5 13 4.3 0 8.5-1.3 10.7-3.4l0.1-0.1v-9h-5.6v8.3z" fill="#353785"/>
	<path d="m418.4 90.7c-1.7 0.1-4.3-0.4-6.6-3.7-2.8-4.4-7.7-14.1-9.7-19.6-0.1-0.1-1.1-2.5-1.3 1.1l-3.2 19.7c-0.3 1.5-2.2 3.7-4 3.4-1.8-0.4-3.3-1.3-3.2-5.8-0.7-12.6 2.8-28.6 6.4-34.1 1.1-1.3 4.1-3 6.2-0.4 3.5 2.9 13.1 23.3 15.8 27.6 2.1 4 2.7 0.8 2.7 0.2 2.1-13.4-4-23.8-4.6-29-0.2-1.5 0.6-3.6 2.9-2.6 14.7 8.5 13.9 41.5-1.4 43.2zm-79.5-12.4c-1.6-0.3-11.9-0.2-18.6 3 3-7.5 9.4-24.4 4-30.9-2.2-2.7-10.5-4.1-11.4-1.1 2.9 5.4 4.2 20.9 0.5 34 0 0-7.7 4.8-3.3 8.5 1 1 3.6 1.1 6.7-1.5 10.6-3.8 25.5-0.1 26-0.5 2.3-2 0.5-10.8-3.9-11.5zm-208.3-39c-0.7 1-1.3 1.9-1.6 2.2-3.4 3.9-5.8-1.4-3.8-5.5-9.8-11.2 3.1-26.9 19.5-26.7 6 0.1 9.1 1.3 9 5.2 22 2 8.4 26.2-13.7 26.6-3.4 0-5.9-0.5-9.4-1.8zm13.5-23.1c-11.9-0.9-18.5 11.5-15.8 14 2.2-3.5 8.3-11.9 15.8-14zm8.7 2.7c-7.6 0.2-15.4 8.9-18.9 14.6 12.6 5.4 32.9-12.6 18.9-14.6zm-45.3 70.9c-13.9 8-32.5 8.6-48.3 3.7 0 12.1-12.3 7.6-11.1-4.2v-0.3c-25.8-12.4-35-23.8-27-31.6 4.7-4.7 15.2-7.9 26.9-9.4 0.6-20.8 3.4-23.3 6.9-21 1.8 1.6 4.7 5.2 4 20.2 12-0.3 24.4 1.5 31 5.6 13.7 7.8 5.5 21.1-7.9 17.3-0.9-0.6-0.2-1.2-0.2-1.2 6.7-3 7.2-5.6 3.6-7.5-5.1-2.3-15.5-3.7-26.4-4.1v0.4c0.1 9.4 0.1 19.9 0.1 27.5 5.4 2.4 21.2 3.6 32.3 1.3 38.7-8 15.9-46-4-58.1-20.6-13.4-49.8-26.2-79.6-20.6-2.3 0.2-2.8 2-0.1 2.2 3.6 0.2 4.7 4-1.6 3.5-13.2-1.9-3.6-13.2 15.6-13.5 80-1.2 132.5 63.5 85.8 89.8zm-59.5-32.5c-8.1 0.2-15.6 1.1-20 2.7-1.1 0.4-2 0.8-2.7 1.2-8.7 5.8 16.3 17.5 22.5 20.4 0 0-0.1-15.6 0.1-23.7l0.1-0.6zm390.7-9.2c-7.8 2.6-8.4 7.8-3.4 8.7 1.5-0.1 1.5-1.1 1-2.3-0.4-1.2 0.7-2 2.8-2.1 23-1.3 40.9 19.9 34.9 26.7-4.5 5.1-15.4 4.3-24.1 1.8 0.3-7.9 0.6-14.4-0.3-20.5-1.7-4-7-0.4-8.1 8.9-0.3 2.4-0.6 4.8-0.8 7-1.7-0.4-3.1-5.6-5.3-1.6-0.3 0.6-3.8 8.2 5 12.2 0.1 4.8 7.1 6.2 8.9 3.2 9.7 2.8 21-2.2 24.2-4.7 25.8-20-10.2-42.9-34.8-37.3zm-54.3 37.2c-5.1 7.1-9.6 6.7-9.9 4.2 0.6-4.3 0.6-8.9 0.2-13.4-5.8 1.2-11 1.5-15.4 1.3-0.7 7.3-1.3 13.4-3 14-3.8 1.1-7.9-4-8.1-7.2 0-0.2 0.2-3.5 1.1-8.2-5-1.2-7.9-2.8-8.3-3.1-2.6-2.2-2.6-11.4 0.3-12.4 0.8 0.7 3.9 4.1 10.1 6.8 1.7-5.8 4.4-11.5 8.3-16.1 5.9-5.4 9.2-3.8 10.6-3.7 7.7 1.9 17.9 26.9 14.1 37.8zm-10.4-14.9c-1.7-10.1-5.1-17.5-7.5-17.2-3.9 0.5-5.4 8.1-6.4 16.7 3.9 0.7 8.5 0.9 13.9 0.5zm-69.6 7.5c-1.7 3-7.9 11.7-21.9 13.6-1 3.3-1.8 6.5-2.5 9.7-1.4 6.5-2.2 12.4-2.7 17-0.3 3.4-0.4 5.9-0.2 7.1-1.5 2.8-8-0.8-9.7-3.8s0.2-17.6 4.9-32.4c-17.9-13.6 3.5-36.7 7.6-39.6 3.1-3.1 7.9-1.4 1.3 7.6-1.5 2-11.6 13.8-5.2 21.8 7.5-17.2 17.6-24.7 22.5-26.8 10.8-3.9 13.8 11.5 5.9 25.8zm-2.2-19.1c-7.7 3.4-15.5 20.5-16.6 23.3 18.1-2.3 22.1-25.2 16.6-23.3zm-43.5 18.8c-3.2-1-14.2 3.3-17.3 3.5 0 0-2.4 0.1-1.9-2 0.9-2.3 2.1-5.9 3.2-8.6 1.5-0.1 11.4-0.1 15-0.9 1.3 0 3.3-5.5 0.7-6-2-0.5-11.2-0.3-13-0.3 0.8-2.1 2-5.3 2.4-6.4 4.9-0.5 21 1.9 19.6-3.1-1.1-2.4-1.5-4.2-5-5.7-2.5-1-14.3 0.9-27.8 1.2-4.2 0.2-0.9 4.5 0.6 5.2 0.8 0.4 2.9 1.1 4.6 1.4-0.9 2.4-2.4 5.9-3.1 7.4-6.7-0.7-4.2 6.4-2.7 6.9-0.5 1.2-5.6 8.7-2.8 15.5 3.8 9.2 11.4 6.7 27.5-1.1 2.4-1.1 3.4-5.6 0-7zm-121-28.4c-1.7-1.3-3.5-0.5-4.4 2.5-2.4 11.6-2.5 24.6-1.5 37 0 1.4 2.2 2.6 4.4 2.7s4.5-1.2 4.5-4c0.3-3.2 0.2-20.8 0-28.9-0.1-4.2-1.4-7.8-3-9.3zm44.8 17.4c-10.5-4.6-23.8-4.6-29.1-5.9-2.3-0.7-0.9-2.1 0.2-2.3 7-2.7 21.7-2 28.7-1 3 0.3 5.6-5.5-1.9-7.2-39.4-9.2-39 15.7-28.7 17.3 1.1 0.3 24.9 2.5 27.8 7 4.6 8.8-14.4 12-26.1 7.7-2.3-0.9-5.2-3.1-4.5-5.1 0.7-2.2 2.9-1.8 4.2-1.5 0.9 0.1 7.4 3 9.4 3.6 4 1.2 8.2 1.3 11.6-1.4 1-1.1 0.9-2.4-0.7-3.2-1.5-0.8-11.4-3.5-14.9-3.8-14-2.5-14.9 9.6-11 13.4 10.1 11.9 29.3 7.3 33.9 4 2.4-1.3 4.9-5.9 5.4-9.4 0.9-4.4 0.4-9.5-4.3-12.2zm33.7-22.4c-2.1-1.3-2.5 1.4-2.3 2.9 0.7 5 5.5 13.8 3.8 29.5 0 0.3-0.2 3.4-2.1 0.4-2.7-4-8.8-20.8-13.2-24.2-2.6-2.1-4.4-0.3-5.3 1-3.3 5.3-6.5 20.5-6.2 32.4 0.1 5.3 6.1 7 6.9 2.1l2.5-21.2c0.4-1.9 1.2-1.2 1.3-1.1 2.6 1.6 6.5 25.4 16.3 24.4 12.6-2.5 11.7-37.3-1.7-46.2z" fill="#C71533"/>
</svg>
