<svg xmlns="http://www.w3.org/2000/svg" viewBox="0 0 90 24" fill="none">
  <!-- HSBC hexagon mark (4 triangles) -->
  <polygon points="0,12 11,0 11,12" fill="#DB0011"/>
  <polygon points="11,0 22,12 11,12" fill="#FF6A6A"/>
  <polygon points="22,12 11,24 11,12" fill="#DB0011"/>
  <polygon points="11,24 0,12 11,12" fill="#FF6A6A"/>
  <!-- HSBC wordmark -->
  <g fill="#282828">
    <!-- H -->
    <path d="M27 4h2v6h3.5V4h2v16h-2v-8H29v8h-2V4z"/>
    <!-- S -->
    <path d="M36.5 16.5c0 1 .8 1.8 1.9 1.8s1.9-.8 1.9-1.8c0-1-.7-1.6-2-2.2-1.8-.8-3-1.8-3-3.6 0-2 1.5-3.4 3.6-3.4 2 0 3.4 1.4 3.5 3.3h-1.9c-.1-.9-.7-1.6-1.6-1.6-.9 0-1.7.6-1.7 1.7 0 .9.7 1.5 2 2.1 1.9.9 3 1.9 3 3.8 0 2-1.5 3.5-3.8 3.5-2.2 0-3.7-1.5-3.8-3.6h2z"/>
    <!-- B -->
    <path d="M44 4h3.5c2.2 0 3.5 1.2 3.5 3 0 1.2-.6 2.1-1.6 2.6 1.3.5 2 1.5 2 2.9 0 2-1.4 3.5-3.7 3.5H44V4zm2 5.4h1.3c1 0 1.7-.6 1.7-1.6s-.7-1.6-1.7-1.6H46V9.4zm0 5.9h1.5c1.2 0 1.9-.7 1.9-1.8s-.7-1.8-1.9-1.8H46v3.6z"/>
    <!-- C -->
    <path d="M62.5 14.3c-.4 2.3-2 3.8-4.2 3.8-2.7 0-4.4-2.1-4.4-5s1.7-5 4.4-5c2.2 0 3.8 1.5 4.2 3.8H60.6c-.3-1.1-1-1.8-2.1-1.8-1.5 0-2.4 1.2-2.4 3s.9 3 2.4 3c1.1 0 1.9-.7 2.2-1.8h1.8z"/>
  </g>
</svg>
