<svg xmlns="http://www.w3.org/2000/svg" viewBox="0 0 102 22" fill="none">
  <!-- YouTube icon -->
  <rect x="0" y="0" width="30" height="22" rx="5" fill="#FF0000"/>
  <polygon points="12,6.5 12,15.5 21.5,11" fill="white"/>
  <!-- YouTube wordmark paths -->
  <g fill="#282828">
    <!-- Y -->
    <path d="M35 5h2.2l2.2 4.6L41.6 5h2.2l-3.3 6.5V16H38.3v-4.5L35 5z"/>
    <!-- o -->
    <path d="M44.5 8.8c0-1.8 1.2-3 3-3s3 1.2 3 3v1.8c0 1.8-1.2 3-3 3s-3-1.2-3-3V8.8zm1.8 1.8c0 .8.5 1.4 1.2 1.4s1.2-.6 1.2-1.4V8.8c0-.8-.5-1.4-1.2-1.4s-1.2.6-1.2 1.4v1.8z"/>
    <!-- u -->
    <path d="M52.2 6h1.8v5.4c0 .7.4 1.2 1 1.2s1-.5 1-1.2V6h1.8v7.4h-1.8v-.8c-.4.6-1 1-1.7 1-1.3 0-2.1-.9-2.1-2.3V6z"/>
    <!-- T -->
    <path d="M59 5h5.6v1.6H62v9.4h-1.8V6.6H59V5z"/>
    <!-- u -->
    <path d="M65.5 6h1.8v5.4c0 .7.4 1.2 1 1.2s1-.5 1-1.2V6h1.8v7.4h-1.8v-.8c-.4.6-1 1-1.7 1-1.3 0-2.1-.9-2.1-2.3V6z"/>
    <!-- b -->
    <path d="M72.5 5h1.8v2.6c.4-.5 1-.8 1.7-.8 1.4 0 2.3 1.1 2.3 2.9v1.5c0 1.8-.9 2.9-2.3 2.9-.7 0-1.3-.3-1.7-.8v.7h-1.8V5zm1.8 5.8c0 .9.5 1.5 1.2 1.5s1.2-.6 1.2-1.5V9.7c0-.9-.5-1.5-1.2-1.5s-1.2.6-1.2 1.5v1.1z"/>
    <!-- e -->
    <path d="M79.5 9c0-1.8 1.2-3.2 2.9-3.2 1.8 0 2.8 1.3 2.8 3.1v.7h-4c.1.8.7 1.3 1.4 1.3.6 0 1-.3 1.2-.7h1.8c-.3 1.2-1.4 2.1-3 2.1-1.9 0-3.1-1.3-3.1-3.1V9zm1.7-.4h2.3c-.1-.7-.6-1.2-1.2-1.2-.6 0-1.1.5-1.1 1.2z"/>
  </g>
</svg>
